<mxfile host="app.diagrams.net" agent="Mozilla/5.0 (Windows NT 10.0; Win64; x64) AppleWebKit/537.36 (KHTML, like Gecko) Chrome/132.0.0.0 Safari/537.36 Edg/132.0.0.0" version="26.0.6">
  <diagram name="PÃ¡gina-1" id="IJLQA5J-xaOqvWTDLEog">
    <mxGraphModel grid="1" page="1" gridSize="10" guides="1" tooltips="1" connect="1" arrows="1" fold="1" pageScale="1" pageWidth="827" pageHeight="1169" math="0" shadow="0">
      <root>
        <mxCell id="0" />
        <mxCell id="1" parent="0" />
        <mxCell id="aAUe8vQCQt8YxLQigECF-8" value="clientes" style="rounded=0;whiteSpace=wrap;html=1;" vertex="1" parent="1">
          <mxGeometry x="250" y="80" width="120" height="20" as="geometry" />
        </mxCell>
        <mxCell id="aAUe8vQCQt8YxLQigECF-18" style="edgeStyle=orthogonalEdgeStyle;rounded=0;orthogonalLoop=1;jettySize=auto;html=1;entryX=0;entryY=0.5;entryDx=0;entryDy=0;" edge="1" parent="1" source="aAUe8vQCQt8YxLQigECF-9" target="aAUe8vQCQt8YxLQigECF-15">
          <mxGeometry relative="1" as="geometry">
            <Array as="points">
              <mxPoint x="205" y="110" />
              <mxPoint x="205" y="280" />
            </Array>
          </mxGeometry>
        </mxCell>
        <mxCell id="aAUe8vQCQt8YxLQigECF-9" value="id_cliente&lt;div&gt;nome&lt;/div&gt;&lt;div&gt;cidade&lt;/div&gt;&lt;div&gt;estado&lt;/div&gt;&lt;div&gt;data_cadastro&lt;/div&gt;" style="rounded=0;whiteSpace=wrap;html=1;align=left;" vertex="1" parent="1">
          <mxGeometry x="250" y="100" width="120" height="80" as="geometry" />
        </mxCell>
        <mxCell id="aAUe8vQCQt8YxLQigECF-10" value="fornecedores" style="rounded=0;whiteSpace=wrap;html=1;" vertex="1" parent="1">
          <mxGeometry x="40" y="80" width="120" height="20" as="geometry" />
        </mxCell>
        <mxCell id="aAUe8vQCQt8YxLQigECF-20" style="edgeStyle=orthogonalEdgeStyle;rounded=0;orthogonalLoop=1;jettySize=auto;html=1;entryX=1;entryY=0.5;entryDx=0;entryDy=0;exitX=1.011;exitY=0.165;exitDx=0;exitDy=0;exitPerimeter=0;" edge="1" parent="1" source="aAUe8vQCQt8YxLQigECF-11" target="aAUe8vQCQt8YxLQigECF-13">
          <mxGeometry relative="1" as="geometry">
            <Array as="points">
              <mxPoint x="180" y="113" />
              <mxPoint x="180" y="285" />
            </Array>
          </mxGeometry>
        </mxCell>
        <mxCell id="aAUe8vQCQt8YxLQigECF-11" value="id_fornecedor&lt;div&gt;nome&lt;/div&gt;&lt;div&gt;cidade&lt;/div&gt;&lt;div&gt;estado&lt;/div&gt;&lt;div&gt;data_cadastro&lt;/div&gt;" style="rounded=0;whiteSpace=wrap;html=1;align=left;" vertex="1" parent="1">
          <mxGeometry x="40" y="100" width="120" height="80" as="geometry" />
        </mxCell>
        <mxCell id="aAUe8vQCQt8YxLQigECF-12" value="produtos" style="rounded=0;whiteSpace=wrap;html=1;" vertex="1" parent="1">
          <mxGeometry x="40" y="220" width="120" height="20" as="geometry" />
        </mxCell>
        <mxCell id="aAUe8vQCQt8YxLQigECF-19" style="edgeStyle=orthogonalEdgeStyle;rounded=0;orthogonalLoop=1;jettySize=auto;html=1;exitX=0;exitY=0.146;exitDx=0;exitDy=0;exitPerimeter=0;entryX=1.028;entryY=0.331;entryDx=0;entryDy=0;entryPerimeter=0;" edge="1" parent="1" source="aAUe8vQCQt8YxLQigECF-13" target="aAUe8vQCQt8YxLQigECF-15">
          <mxGeometry relative="1" as="geometry">
            <mxPoint x="540" y="210" as="targetPoint" />
            <Array as="points">
              <mxPoint x="20" y="253" />
              <mxPoint x="20" y="350" />
              <mxPoint x="390" y="350" />
              <mxPoint x="390" y="267" />
            </Array>
          </mxGeometry>
        </mxCell>
        <mxCell id="aAUe8vQCQt8YxLQigECF-13" value="id_produto&lt;div&gt;nome&lt;/div&gt;&lt;div&gt;id_fornecedor&lt;/div&gt;&lt;div&gt;data_cadastro&lt;/div&gt;&lt;div&gt;qtde&lt;/div&gt;&lt;div&gt;valor&lt;/div&gt;" style="rounded=0;whiteSpace=wrap;html=1;align=left;" vertex="1" parent="1">
          <mxGeometry x="40" y="240" width="120" height="90" as="geometry" />
        </mxCell>
        <mxCell id="aAUe8vQCQt8YxLQigECF-14" value="vendas" style="rounded=0;whiteSpace=wrap;html=1;" vertex="1" parent="1">
          <mxGeometry x="250" y="220" width="120" height="20" as="geometry" />
        </mxCell>
        <mxCell id="aAUe8vQCQt8YxLQigECF-15" value="id_venda&lt;div&gt;id_produto&lt;/div&gt;&lt;div&gt;id_cliente&lt;/div&gt;&lt;div&gt;data_venda&lt;/div&gt;&lt;div&gt;valor&lt;/div&gt;" style="rounded=0;whiteSpace=wrap;html=1;align=left;" vertex="1" parent="1">
          <mxGeometry x="250" y="240" width="120" height="80" as="geometry" />
        </mxCell>
      </root>
    </mxGraphModel>
  </diagram>
</mxfile>
